<?xml version="1.0" standalone="no"?>
<!DOCTYPE svg PUBLIC "-//W3C//DTD SVG 20010904//EN"
 "http://www.w3.org/TR/2001/REC-SVG-20010904/DTD/svg10.dtd">
<svg version="1.0" xmlns="http://www.w3.org/2000/svg"
 width="700.000000pt" height="700.000000pt" viewBox="0 0 700.000000 700.000000"
 preserveAspectRatio="xMidYMid meet">
<metadata>
Created by potrace 1.14, written by Peter Selinger 2001-2017
</metadata>
<g transform="translate(0.000000,700.000000) scale(0.100000,-0.100000)"
fill="#000000" stroke="none">
<path d="M2936 6975 c-44 -23 -390 -224 -1166 -678 -140 -81 -271 -164 -292
-184 -20 -19 -51 -65 -70 -101 l-33 -66 0 -2137 0 -2138 21 -27 c32 -44 68
-66 115 -71 50 -6 -2 -30 599 287 96 51 218 115 270 143 52 27 122 64 155 82
33 18 119 63 190 100 270 141 391 208 408 228 9 11 22 36 28 56 7 24 9 740 7
2233 l-3 2197 -21 27 c-32 43 -65 63 -114 70 -37 5 -54 1 -94 -21z"/>
<path d="M3716 4649 c-40 -11 -94 -65 -102 -103 -4 -17 -7 -482 -6 -1034 l0
-1002 27 -55 c32 -67 51 -80 285 -205 96 -51 198 -105 225 -120 28 -15 104
-57 170 -92 66 -36 152 -82 190 -103 39 -20 93 -50 120 -65 28 -15 84 -45 125
-67 41 -22 102 -55 135 -73 33 -18 87 -47 120 -65 33 -18 89 -48 125 -67 36
-20 101 -55 145 -78 44 -23 94 -50 110 -60 45 -26 80 -31 130 -19 53 13 101
62 110 111 3 18 5 472 3 1008 l-3 975 -22 40 c-11 22 -32 50 -45 62 -21 20
-126 85 -223 138 -22 12 -69 39 -105 60 -36 20 -80 46 -97 56 -18 10 -119 69
-225 130 -217 125 -242 140 -295 170 -21 12 -67 38 -103 59 -36 21 -81 47
-100 57 -19 11 -91 53 -160 93 -456 264 -464 268 -534 249z"/>
<path d="M3343 2045 c-23 -7 -70 -28 -105 -47 -35 -20 -108 -59 -163 -88 -55
-29 -131 -69 -170 -90 -38 -20 -119 -63 -180 -95 -275 -144 -323 -169 -370
-195 -27 -15 -104 -56 -170 -90 -66 -35 -142 -75 -170 -90 -27 -15 -97 -52
-154 -81 -125 -65 -155 -100 -153 -181 1 -60 34 -109 98 -144 21 -12 224 -129
449 -259 226 -131 428 -247 450 -259 22 -13 194 -111 382 -220 299 -173 348
-198 395 -203 58 -6 101 10 213 76 28 16 61 36 75 44 14 8 52 30 85 49 103 60
329 190 360 208 17 9 88 50 158 91 70 41 142 82 160 93 121 70 434 251 460
265 155 88 170 101 187 164 22 78 -19 148 -116 196 -27 14 -83 44 -124 66 -41
23 -118 65 -170 92 -52 28 -115 62 -140 75 -51 28 -99 54 -365 198 -183 99
-233 126 -375 202 -36 19 -119 65 -185 100 -254 138 -280 147 -362 123z"/>
</g>
</svg>
